<svg width="92" height="24" fill="none" xmlns="http://www.w3.org/2000/svg" class="hide@mobile"><path fill-rule="evenodd" clip-rule="evenodd" d="M7.34 0c4.4 0 7.979 3.579 7.979 7.978 0 .35-.024.7-.07 1.05A8.584 8.584 0 0118 15.351C18 20.12 14.12 24 9.352 24H5.296A5.303 5.303 0 010 18.703V5.297A5.302 5.302 0 015.296 0h2.045zm50.587 8.698c.923 0 1.795.23 2.522.666 1.628.972 2.64 2.786 2.64 4.733 0 1.971-.98 3.732-2.62 4.712-.717.43-1.683.686-2.583.686-.924 0-1.754-.221-2.477-.66l-.213-.138V23h-2.492V8.908h2.43v.631c.807-.558 1.744-.84 2.793-.84zm12.32 0c.922 0 1.794.23 2.52.666 1.63.972 2.641 2.786 2.641 4.733 0 1.971-.98 3.732-2.62 4.712-.717.43-1.683.686-2.583.686-.924 0-1.754-.221-2.476-.66l-.214-.138V23h-2.492V8.908h2.43v.631c.807-.558 1.744-.84 2.794-.84zM7.34 2.55H5.296A2.75 2.75 0 002.55 5.297v13.406a2.75 2.75 0 002.748 2.748h4.055c3.363 0 6.099-2.736 6.099-6.1 0-1.287-.397-2.51-1.122-3.527a7.995 7.995 0 01-2.359 2.65l-.018.012a8.077 8.077 0 01-.336.227l-.06.036c-.66.386-1.412.59-2.178.59a4.323 4.323 0 01-4.317-4.318A4.326 4.326 0 019.36 6.704c.072 0 .193.004.227.005 1.099.03 2.162.262 3.151.683A5.437 5.437 0 007.341 2.55zM45.607 8.7c3.025 0 5.306 2.32 5.306 5.398 0 3.077-2.28 5.399-5.306 5.399-3.026 0-5.307-2.322-5.307-5.4 0-3.077 2.281-5.398 5.307-5.398zm41.44 0c2.824 0 4.953 2.32 4.953 5.398 0 .068 0 .184-.011.332l-.011.116-.026.233H84.49a2.913 2.913 0 002.867 2.453c1.23 0 1.938-.53 2.5-1.133l.111-.122.179-.2 1.65 1.586-.143.187c-.451.585-1.775 1.946-4.318 1.946-3.025 0-5.307-2.32-5.307-5.398 0-3.128 2.11-5.399 5.016-5.399zM33.202 4c1.345 0 2.351.348 3.166 1.096a4.068 4.068 0 011.29 2.982 3.95 3.95 0 01-.98 2.557c1.344.82 2.226 2.354 2.226 3.921 0 1.409-.618 2.72-1.696 3.6-.79.664-1.768.998-3.06 1.04l-.281.004H28V4h5.203zm46.764 0v15.2h-2.492V4h2.492zm-34.36 7.109c-1.605 0-2.815 1.284-2.815 2.988 0 1.703 1.21 2.987 2.815 2.987 1.604 0 2.814-1.284 2.814-2.987 0-1.704-1.21-2.988-2.814-2.988zm12.113 0c-.9 0-1.772.396-2.387 1.072l-.137.161v3.511c.6.773 1.499 1.231 2.42 1.231a2.952 2.952 0 002.98-2.987c0-1.94-1.482-2.988-2.876-2.988zm12.319 0c-.9 0-1.772.396-2.387 1.072l-.137.161v3.511c.6.773 1.5 1.231 2.42 1.231a2.952 2.952 0 002.98-2.987c0-1.94-1.482-2.988-2.876-2.988zm-36.545 1.172h-2.898v4.403h2.898c1.347 0 1.856-.326 2.205-.678.391-.415.61-.961.61-1.534 0-.716-.334-1.22-.614-1.517-.345-.348-.854-.674-2.201-.674zM9.362 9.253A1.77 1.77 0 007.61 11.02a1.771 1.771 0 002.642 1.538c.073-.047.15-.098.225-.151l.016-.012a5.435 5.435 0 001.867-2.35 6.046 6.046 0 00-2.845-.789h-.014c-.003 0-.093-.004-.14-.004zm77.747 1.71c-.992 0-1.88.574-2.307 1.447l-.075.167h4.606c-.357-.94-1.262-1.615-2.224-1.615zm-54.28-4.447h-2.233v3.25h2.233c1.18 0 1.562-.25 1.8-.52.285-.307.433-.688.433-1.105a1.59 1.59 0 00-.428-1.1c-.243-.275-.625-.525-1.805-.525z" fill="#5B52FF"></path></svg>