<svg width="18" height="24" fill="none" xmlns="http://www.w3.org/2000/svg" class="show@mobile"><path fill-rule="evenodd" clip-rule="evenodd" d="M7.34 0c4.4 0 7.979 3.579 7.979 7.978 0 .35-.024.7-.07 1.05A8.584 8.584 0 0118 15.351C18 20.12 14.12 24 9.352 24H5.296A5.303 5.303 0 010 18.703V5.297A5.302 5.302 0 015.296 0h2.045zm0 2.55H5.298a2.75 2.75 0 00-2.748 2.747v13.406a2.75 2.75 0 002.748 2.748h4.055c3.363 0 6.099-2.736 6.099-6.1 0-1.287-.397-2.51-1.122-3.527a7.995 7.995 0 01-2.359 2.65l-.018.012a8.077 8.077 0 01-.336.227l-.06.036c-.66.386-1.412.59-2.178.59a4.323 4.323 0 01-4.317-4.318A4.326 4.326 0 019.36 6.704c.072 0 .193.004.227.005 1.099.03 2.162.262 3.151.683A5.437 5.437 0 007.341 2.55zm2.022 6.703A1.77 1.77 0 007.61 11.02a1.771 1.771 0 002.642 1.538c.073-.047.15-.098.225-.151l.016-.012a5.435 5.435 0 001.867-2.35 6.046 6.046 0 00-2.845-.789h-.014c-.003 0-.093-.004-.14-.004z" fill="#6558FF"></path></svg>